<svg xmlns="http://www.w3.org/2000/svg">
    <symbol id="l11m4" viewBox="0 0 20 20" fill="none">
        <path d="M11.9604 2.29175C15.0446 2.63425 17.4813 5.06758 17.8279 8.15175" stroke="#46A358" stroke-width="1.5"
            stroke-linecap="round" stroke-linejoin="round" />
        <path d="M11.9604 5.24425C13.4363 5.53091 14.5896 6.68508 14.8771 8.16091" stroke="#46A358" stroke-width="1.5"
            stroke-linecap="round" stroke-linejoin="round" />
        <path fill-rule="evenodd" clip-rule="evenodd"
            d="M6.41709 13.5825C0.668773 7.83352 1.48617 5.20096 2.09214 4.35263C2.16999 4.21552 4.08875 1.34323 6.14551 3.02839C11.2507 7.23288 4.78761 6.63843 9.07452 10.9261C13.3623 15.2128 12.767 8.74996 16.9716 13.8541C18.6568 15.9117 15.7844 17.8303 15.6482 17.9073C14.7998 18.5141 12.1663 19.3315 6.41709 13.5825Z"
            stroke="#46A358" stroke-width="1.5" stroke-linecap="round" stroke-linejoin="round" />
    </symbol>

    <symbol id="l11b4" viewBox="0 0 192 32" fill="none">
        <rect x="160.5" y="0.5" width="31" height="31" rx="4.5" stroke="#46A358" stroke-opacity="0.2" />
        <path fill-rule="evenodd" clip-rule="evenodd"
            d="M182.165 13.4299L182.168 13.4306C182.168 13.4306 182.168 13.4305 182.167 13.4303C182.166 13.4302 182.166 13.4301 182.165 13.4299ZM171.324 13.3569C173.918 13.1957 178.748 13.1957 181.341 13.3569L181.342 13.3644C181.405 13.9972 181.43 14.8414 181.43 16.0192C181.43 17.1824 181.405 18.0269 181.344 18.665C178.696 18.7703 173.971 18.7703 171.323 18.665C171.261 18.0332 171.236 17.1914 171.236 16.0192C171.236 14.8414 171.261 13.9972 171.324 13.3644L171.324 13.3569ZM182.242 18.6111C182.242 18.6111 182.241 18.6115 182.237 18.6122L182.242 18.6111ZM170.498 18.6077L170.501 18.6084C170.499 18.6079 170.498 18.6077 170.498 18.6077ZM167 16.0192C167 20.8412 167.389 22.63 170.422 22.8633C173.222 23.0189 179.444 23.0189 182.244 22.8633C185.277 22.7078 185.666 20.8412 185.666 16.0192C185.666 11.1971 185.277 9.40832 182.244 9.17499C179.444 8.94167 173.222 8.94167 170.422 9.17499C167.389 9.40832 167 11.1971 167 16.0192ZM170.498 13.4306C170.498 13.4306 170.499 13.4304 170.501 13.4299L170.498 13.4306ZM176.782 17.7389C175.504 18.3781 174 17.4484 174 16.0192C174 14.5899 175.504 13.6602 176.782 14.2994C178.199 15.008 178.199 17.0303 176.782 17.7389Z"
            fill="#46A358" fill-opacity="0.6" />
        <rect x="120.5" y="0.5" width="31" height="31" rx="4.5" stroke="#46A358" stroke-opacity="0.2" />
        <path
            d="M131.333 9.66667C131.333 10.6 130.6 11.3333 129.667 11.3333C128.733 11.3333 128 10.6 128 9.66667C128 8.73333 128.733 8 129.667 8C130.6 8 131.333 8.73333 131.333 9.66667ZM131.333 12.6667H128V23.3333H131.333V12.6667ZM136.667 12.6667H133.333V23.3333H136.667V17.7333C136.667 14.6 140.667 14.3333 140.667 17.7333V23.3333H144V16.6C144 11.3333 138.067 11.5333 136.667 14.1333V12.6667Z"
            fill="#46A358" fill-opacity="0.6" />
        <rect x="40.5" y="0.5" width="31" height="31" rx="4.5" stroke="#46A358" stroke-opacity="0.2" />
        <path
            d="M56 9.46667C58.1333 9.46667 58.4 9.46667 59.2667 9.53333C61.4667 9.6 62.4667 10.6667 62.5333 12.8C62.6 13.6667 62.6 13.8667 62.6 16C62.6 18.1333 62.6 18.4 62.5333 19.2C62.4667 21.3333 61.4 22.4 59.2667 22.4667C58.4 22.5333 58.2 22.5333 56 22.5333C53.8667 22.5333 53.6 22.5333 52.8 22.4667C50.6 22.4 49.6 21.3333 49.5333 19.2C49.4667 18.3333 49.4667 18.1333 49.4667 16C49.4667 13.8667 49.4667 13.6 49.5333 12.8C49.6 10.6667 50.6667 9.6 52.8 9.53333C53.6 9.46667 53.8667 9.46667 56 9.46667ZM56 8C53.8 8 53.5333 8 52.7333 8.06667C49.8 8.2 48.2 9.8 48.0667 12.7333C48 13.5333 48 13.8 48 16C48 18.2 48 18.4667 48.0667 19.2667C48.2 22.2 49.8 23.8 52.7333 23.9333C53.5333 24 53.8 24 56 24C58.2 24 58.4667 24 59.2667 23.9333C62.2 23.8 63.8 22.2 63.9333 19.2667C64 18.4667 64 18.2 64 16C64 13.8 64 13.5333 63.9333 12.7333C63.8 9.8 62.2 8.2 59.2667 8.06667C58.4667 8 58.2 8 56 8ZM56 11.8667C53.7333 11.8667 51.8667 13.7333 51.8667 16C51.8667 18.2667 53.7333 20.1333 56 20.1333C58.2667 20.1333 60.1333 18.2667 60.1333 16C60.1333 13.7333 58.2667 11.8667 56 11.8667ZM56 18.6667C54.5333 18.6667 53.3333 17.4667 53.3333 16C53.3333 14.5333 54.5333 13.3333 56 13.3333C57.4667 13.3333 58.6667 14.5333 58.6667 16C58.6667 17.4667 57.4667 18.6667 56 18.6667ZM60.2667 10.8C59.7333 10.8 59.3333 11.2 59.3333 11.7333C59.3333 12.2667 59.7333 12.6667 60.2667 12.6667C60.8 12.6667 61.2 12.2667 61.2 11.7333C61.2 11.2 60.8 10.8 60.2667 10.8Z"
            fill="#46A358" fill-opacity="0.6" />
        <rect x="0.5" y="0.5" width="31" height="31" rx="4.5" stroke="#46A358" stroke-opacity="0.2" />
        <path
            d="M14 13.3333H12V16H14V24H17.3333V16H19.7333L20 13.3333H17.3333V12.2C17.3333 11.6 17.4667 11.3333 18.0667 11.3333H20V8H17.4667C15.0667 8 14 9.06667 14 11.0667V13.3333Z"
            fill="#46A358" fill-opacity="0.6" />
        <rect x="80.5" y="0.5" width="31" height="31" rx="4.5" stroke="#46A358" stroke-opacity="0.2" />
        <path
            d="M93.0319 22.0036C99.0699 22.0036 102.372 17.0012 102.372 12.6636C102.372 12.5214 102.369 12.38 102.362 12.2392C103.003 11.7759 103.561 11.1976 104 10.5395C103.412 10.8008 102.779 10.9768 102.115 11.0562C102.793 10.6498 103.313 10.0067 103.559 9.24021C102.924 9.61636 102.222 9.88969 101.474 10.0371C100.875 9.39908 100.022 9 99.0779 9C97.2648 9 95.7946 10.4702 95.7946 12.2823C95.7946 12.54 95.8236 12.7904 95.8796 13.0308C93.1516 12.8938 90.7324 11.5874 89.1135 9.60125C88.8313 10.0862 88.6688 10.65 88.6688 11.2511C88.6688 12.3899 89.2484 13.3953 90.1297 13.9836C89.5912 13.9671 89.0853 13.8189 88.6429 13.5729C88.6422 13.5866 88.6422 13.6004 88.6422 13.6148C88.6422 15.2047 89.7739 16.532 91.2758 16.8329C91.0001 16.908 90.71 16.9484 90.4105 16.9484C90.199 16.9484 89.9934 16.9273 89.7934 16.8893C90.2112 18.1933 91.4232 19.1425 92.8601 19.1693C91.7364 20.0499 90.3209 20.5745 88.783 20.5745C88.5183 20.5745 88.257 20.5594 88 20.529C89.4527 21.46 91.1777 22.0036 93.0319 22.0036Z"
            fill="#46A358" fill-opacity="0.6" />

    </symbol>
    <symbol id="line" viewBox="0 0 1 187" fill="none">
        <rect y="187" width="187" height="1.00001" transform="rotate(-90 0 187)" fill="#46A358" fill-opacity="0.1" />

    </symbol>
    <symbol id="arrow" viewBox="0 0 16 16" fill="none">
        <path
            d="M2.66666 7.81714C2.66666 7.56401 2.85476 7.35481 3.09881 7.3217L3.16666 7.31714L13.1667 7.31714C13.4428 7.31714 13.6667 7.541 13.6667 7.81714C13.6667 8.07027 13.4786 8.27947 13.2345 8.31257L13.1667 8.31714H3.16666C2.89051 8.31714 2.66666 8.09328 2.66666 7.81714Z"
            fill="currentColor" />
        <path
            d="M8.78066 4.15517C8.58498 3.96033 8.5843 3.64375 8.77914 3.44807C8.95627 3.27018 9.23401 3.25344 9.43006 3.39825L9.48624 3.44655L13.5196 7.46255C13.698 7.6402 13.7142 7.91895 13.5683 8.11499L13.5196 8.17114L9.48627 12.1878C9.29061 12.3827 8.97403 12.382 8.77917 12.1863C8.60203 12.0085 8.58646 11.7307 8.7321 11.5352L8.78063 11.4792L12.458 7.81666L8.78066 4.15517Z"
            fill="currentColor" />
    </symbol>
    <symbol id="paginationNext" viewBox="0 0 18 18" fill="none">
        <svg width="18" height="18" viewBox="0 0 18 18" fill="none" xmlns="http://www.w3.org/2000/svg">
            <path d="M6.375 3.75C6.375 3.75 11.625 6.858 11.625 9C11.625 11.1413 6.375 14.25 6.375 14.25"
                stroke="currentColor" stroke-width="1.5" stroke-linecap="round" stroke-linejoin="round" />
        </svg>
    </symbol>
    <symbol id="shopCart" viewBox="0 0 20 20" fill="none">
        <g clip-path="url(#clip0_2_1949)">
            <path
                d="M14.294 16.8745H8.24077C5.65655 16.8745 3.55412 14.7721 3.55412 12.1879V7.38405C3.55412 4.98175 2.35676 2.75813 0.351225 1.4358C-0.00894369 1.19834 -0.108379 0.713895 0.129078 0.353726C0.366535 -0.00648163 0.850939 -0.105956 1.21119 0.131579C2.35606 0.886442 3.28487 1.88204 3.94905 3.02832C4.09258 3.18911 5.24995 4.41584 7.14726 4.41584H16.142C18.596 4.36995 20.5168 6.83267 19.8752 9.20138L18.8397 13.3284C18.3159 15.4163 16.4466 16.8745 14.294 16.8745ZM4.91926 5.53677C5.04912 6.1367 5.11634 6.7553 5.11634 7.38405V12.1879C5.11634 13.9107 6.51796 15.3123 8.24077 15.3123H14.294C15.7291 15.3123 16.9752 14.3401 17.3245 12.9482L18.3599 8.82121C18.7412 7.41373 17.5997 5.95084 16.142 5.97806H7.14722C6.28913 5.97806 5.54224 5.79305 4.91926 5.53677ZM7.85021 19.0226C7.85021 18.4833 7.41307 18.0462 6.87383 18.0462C5.57828 18.0978 5.57942 19.9479 6.87383 19.999C7.41307 19.999 7.85021 19.5618 7.85021 19.0226ZM15.6222 19.0226C15.6222 18.4833 15.1851 18.0462 14.6459 18.0462C13.3503 18.0978 13.3514 19.9479 14.6459 19.999C15.1851 19.999 15.6222 19.5618 15.6222 19.0226ZM16.9231 8.32138C16.9231 7.88998 16.5734 7.54027 16.142 7.54027H7.45966C6.42329 7.58152 6.42407 9.0616 7.45966 9.10249H16.142C16.5734 9.10249 16.9231 8.75279 16.9231 8.32138Z"
                fill="currentColor" />
        </g>
        <defs>
            <clipPath id="clip0_2_1949">
                <rect width="20" height="20" fill="white" />
            </clipPath>
        </defs>
    </symbol>
    <symbol id="like" viewBox="0 0 20 20" fill="none">
        <path
            d="M10 18.8873C9.71527 18.8873 9.44077 18.7842 9.22684 18.5968C8.41888 17.8903 7.63992 17.2264 6.95267 16.6408L6.94916 16.6377C4.93423 14.9207 3.19427 13.4378 1.98364 11.9771C0.630341 10.3441 0 8.79578 0 7.10434C0 5.46097 0.563507 3.94485 1.58661 2.83508C2.62192 1.71219 4.04251 1.09375 5.58716 1.09375C6.74164 1.09375 7.79892 1.45874 8.72955 2.1785C9.19922 2.54181 9.62494 2.98645 10 3.5051C10.3752 2.98645 10.8008 2.54181 11.2706 2.1785C12.2012 1.45874 13.2585 1.09375 14.413 1.09375C15.9575 1.09375 17.3782 1.71219 18.4135 2.83508C19.4366 3.94485 20 5.46097 20 7.10434C20 8.79578 19.3698 10.3441 18.0165 11.9769C16.8059 13.4378 15.0661 14.9205 13.0515 16.6374C12.363 17.224 11.5828 17.8889 10.773 18.5971C10.5592 18.7842 10.2846 18.8873 10 18.8873ZM5.58716 2.26532C4.37363 2.26532 3.25882 2.74963 2.44781 3.62915C1.62476 4.52194 1.17142 5.75607 1.17142 7.10434C1.17142 8.52692 1.70013 9.79919 2.88559 11.2296C4.03137 12.6122 5.73563 14.0645 7.70889 15.7462L7.71255 15.7492C8.4024 16.3371 9.18442 17.0036 9.99832 17.7153C10.8171 17.0023 11.6003 16.3347 12.2916 15.7458C14.2647 14.0642 15.9688 12.6122 17.1146 11.2296C18.2999 9.79919 18.8286 8.52692 18.8286 7.10434C18.8286 5.75607 18.3752 4.52194 17.5522 3.62915C16.7413 2.74963 15.6264 2.26532 14.413 2.26532C13.524 2.26532 12.7078 2.54791 11.9872 3.10516C11.3449 3.60199 10.8975 4.23004 10.6352 4.66949C10.5003 4.89548 10.2629 5.03036 10 5.03036C9.73709 5.03036 9.49966 4.89548 9.36478 4.66949C9.10263 4.23004 8.65524 3.60199 8.01285 3.10516C7.29218 2.54791 6.47598 2.26532 5.58716 2.26532Z"
            fill="currentColor" />
    </symbol>
    <symbol id="searchItem" viewBox="0 0 20 20" fill="none">
        <g clip-path="url(#clip0_2_1953)">
            <path
                d="M14.5656 16.0023C10.5704 19.1859 4.98549 18.3049 2.02729 14.6536C-0.827886 11.1285 -0.64932 6.04314 2.44811 2.82458C5.64856 -0.50074 10.6802 -0.944658 14.3277 1.78316C15.6345 2.76027 16.6104 4.00337 17.246 5.50807C17.8853 7.02151 18.0795 8.59614 17.8578 10.2201C17.6368 11.8365 16.9918 13.2769 15.9423 14.6212C16.0272 14.6767 16.1178 14.7167 16.1827 14.7816C17.3365 15.9305 18.4859 17.0836 19.6397 18.2325C19.9132 18.5047 20.0493 18.8218 19.9682 19.204C19.8071 19.9644 18.9018 20.2579 18.3211 19.7359C18.0489 19.4918 17.7985 19.2227 17.54 18.9642C16.5923 18.0171 15.6451 17.0693 14.6973 16.1221C14.658 16.0847 14.6168 16.0497 14.5656 16.0023ZM15.9529 8.98636C15.9629 5.12659 12.8468 2.00605 8.97825 2.00043C5.12035 1.99481 2.00669 5.09037 1.98983 8.94765C1.97297 12.8168 5.08289 15.9461 8.96326 15.9642C12.8055 15.9823 15.9429 12.8499 15.9529 8.98636Z"
                fill="currentColor" />
        </g>
        <defs>
            <clipPath id="clip0_2_1953">
                <rect width="19.9913" height="20" fill="white" />
            </clipPath>
        </defs>
    </symbol>
    <symbol id="loginIcon" viewBox="0 0 20 20" fill="none">
        <path d="M18.1601 10.1006H8.12598" stroke="white" stroke-width="1.5" stroke-linecap="round"
            stroke-linejoin="round" />
        <path d="M15.7212 7.67059L18.1612 10.1006L15.7212 12.5306" stroke="white" stroke-width="1.5"
            stroke-linecap="round" stroke-linejoin="round" />
        <path
            d="M13.6342 6.35826C13.3592 3.37493 12.2425 2.2916 7.80082 2.2916C1.88332 2.2916 1.88332 4.2166 1.88332 9.99993C1.88332 15.7833 1.88332 17.7083 7.80082 17.7083C12.2425 17.7083 13.3592 16.6249 13.6342 13.6416"
            stroke="white" stroke-width="1.5" stroke-linecap="round" stroke-linejoin="round" />

    </symbol>
    <symbol id="contextArrow" viewBox="0 0 7 10" fill="none">
        <path
            d="M6.79141 9.05421C7.02467 9.26992 7.02548 9.6204 6.79322 9.83704C6.58208 10.034 6.251 10.0525 6.01729 9.89219L5.95032 9.83873L1.14237 5.39264C0.929677 5.19596 0.910329 4.88737 1.08433 4.67032L1.14233 4.60816L5.95028 0.161336C6.18353 -0.0543896 6.56091 -0.0536639 6.79319 0.162956C7.00435 0.359884 7.0229 0.667444 6.84929 0.883814L6.79144 0.945788L2.40784 5.00061L6.79141 9.05421Z"
            fill="currentColor" />
    </symbol>
    <symbol id="topShopCart" viewBox="0 0 31 24" fill="none">
        <path
            d="M17.1567 20.25H9.89163C6.79003 20.25 4.26667 17.7267 4.26667 14.6251V8.85947C4.26667 5.9762 2.82958 3.30739 0.422521 1.72031C-0.00975775 1.43531 -0.129101 0.853876 0.155897 0.421598C0.440896 -0.0107278 1.02228 -0.130118 1.45465 0.154974C2.82874 1.06097 3.94351 2.2559 4.74067 3.63167C4.91293 3.82466 6.30202 5.29699 8.57919 5.29699H19.3748C22.3201 5.24191 24.6254 8.19769 23.8554 11.0406L22.6126 15.9939C21.9839 18.4998 19.7404 20.25 17.1567 20.25ZM5.90513 6.64234C6.06099 7.36238 6.14166 8.10483 6.14166 8.85947V14.6251C6.14166 16.6928 7.8239 18.375 9.89163 18.375H17.1567C18.8792 18.375 20.3748 17.2082 20.794 15.5376L22.0367 10.5844C22.4943 8.89509 21.1243 7.13931 19.3748 7.17198H8.57914C7.54926 7.17198 6.65283 6.94993 5.90513 6.64234ZM9.42289 22.8281C9.42289 22.1809 8.89822 21.6563 8.25102 21.6563C6.69609 21.7182 6.69745 23.9387 8.25102 24C8.89822 24 9.42289 23.4753 9.42289 22.8281ZM18.751 22.8281C18.751 22.1809 18.2263 21.6563 17.5791 21.6563C16.0242 21.7182 16.0255 23.9387 17.5791 24C18.2263 24 18.751 23.4753 18.751 22.8281ZM20.3123 9.98446C20.3123 9.46668 19.8925 9.04697 19.3748 9.04697H8.95414C7.71027 9.09647 7.71121 10.8729 8.95414 10.922H19.3748C19.8925 10.922 20.3123 10.5022 20.3123 9.98446Z"
            fill="#3D3D3D" />
        <circle cx="23.001" cy="8" r="7" fill="#46A358" stroke="white" stroke-width="2" />
        <path
            d="M25.121 8.83C25.121 7.58 24.101 6.62 22.951 6.62C22.841 6.62 22.751 6.63 22.661 6.65L24.251 4.4H23.001L21.351 6.73C21.121 7.06 20.951 7.31 20.841 7.49C20.731 7.67 20.641 7.87 20.561 8.1C20.491 8.32 20.451 8.56 20.451 8.82C20.421 10.12 21.531 11.13 22.781 11.11C24.041 11.11 25.121 10.12 25.121 8.83ZM24.071 8.83C24.071 9.2 23.941 9.52 23.691 9.77C23.441 10.02 23.141 10.14 22.781 10.14C22.411 10.14 22.111 10.02 21.861 9.77C21.611 9.52 21.491 9.2 21.491 8.83C21.491 8.46 21.611 8.15 21.861 7.9C22.111 7.65 22.411 7.52 22.781 7.52C23.141 7.52 23.441 7.65 23.691 7.9C23.941 8.15 24.071 8.46 24.071 8.83Z"
            fill="white" />

    </symbol>
    <symbol id="search" viewBox="0 0 20 20" fill="none">
        <path
            d="M14.5726 16.0029C10.5755 19.1865 4.988 18.3056 2.02842 14.6542C-0.828088 11.129 -0.64944 6.04347 2.44943 2.82482C5.65137 -0.500594 10.6854 -0.944524 14.3346 1.78337C15.642 2.76051 16.6183 4.00364 17.2542 5.50838C17.8938 7.02186 18.0881 8.59654 17.8663 10.2205C17.6452 11.837 17 13.2775 15.9499 14.6217C16.0349 14.6773 16.1255 14.7173 16.1904 14.7822C17.3448 15.9311 18.4947 17.0843 19.6491 18.2331C19.9227 18.5054 20.0589 18.8225 19.9776 19.2047C19.8165 19.9651 18.9107 20.2586 18.3298 19.7366C18.0575 19.4925 17.807 19.2234 17.5484 18.9649C16.6002 18.0177 15.6526 17.0699 14.7044 16.1227C14.665 16.0853 14.6238 16.0503 14.5726 16.0029ZM15.9605 8.98677C15.9705 5.12689 12.8529 2.00627 8.98261 2.00065C5.12292 1.99503 2.00781 5.09068 1.99094 8.94806C1.97408 12.8173 5.08544 15.9467 8.96762 15.9648C12.8117 15.9829 15.9505 12.8504 15.9605 8.98677Z"
            fill="#3D3D3D" />

    </symbol>
    <symbol id="rect" viewBox="0 0 32 32" fill="none">
        <rect x="0.5" y="0.5" width="31" height="31" rx="4.5" stroke="#46A358" stroke-opacity="0.2" />
    </symbol>
    <symbol id="facebook" viewBox="0 0 32 32" fill="none">
        <g transform="translate(12,8)">
            <path
                d="M2 5.33333H0V8H2V16H5.33333V8H7.73333L8 5.33333H5.33333V4.2C5.33333 3.6 5.46667 3.33333 6.06667 3.33333H8V0H5.46667C3.06667 0 2 1.06667 2 3.06667V5.33333Z"
                fill="#46A358" fill-opacity="0.6" />
        </g>
    </symbol>
    <symbol id="inst" viewBox="0 0 32 32" fill="none">
        <g transform="translate(8,8)">
            <path
                d="M8 1.46667C10.1333 1.46667 10.4 1.46667 11.2667 1.53333C13.4667 1.6 14.4667 2.66667 14.5333 4.8C14.6 5.66667 14.6 5.86667 14.6 8C14.6 10.1333 14.6 10.4 14.5333 11.2C14.4667 13.3333 13.4 14.4 11.2667 14.4667C10.4 14.5333 10.2 14.5333 8 14.5333C5.86667 14.5333 5.6 14.5333 4.8 14.4667C2.6 14.4 1.6 13.3333 1.53333 11.2C1.46667 10.3333 1.46667 10.1333 1.46667 8C1.46667 5.86667 1.46667 5.6 1.53333 4.8C1.6 2.66667 2.66667 1.6 4.8 1.53333C5.6 1.46667 5.86667 1.46667 8 1.46667ZM8 0C5.8 0 5.53333 0 4.73333 0.0666667C1.8 0.2 0.2 1.8 0.0666667 4.73333C0 5.53333 0 5.8 0 8C0 10.2 0 10.4667 0.0666667 11.2667C0.2 14.2 1.8 15.8 4.73333 15.9333C5.53333 16 5.8 16 8 16C10.2 16 10.4667 16 11.2667 15.9333C14.2 15.8 15.8 14.2 15.9333 11.2667C16 10.4667 16 10.2 16 8C16 5.8 16 5.53333 15.9333 4.73333C15.8 1.8 14.2 0.2 11.2667 0.0666667C10.4667 0 10.2 0 8 0ZM8 3.86667C5.73333 3.86667 3.86667 5.73333 3.86667 8C3.86667 10.2667 5.73333 12.1333 8 12.1333C10.2667 12.1333 12.1333 10.2667 12.1333 8C12.1333 5.73333 10.2667 3.86667 8 3.86667ZM8 10.6667C6.53333 10.6667 5.33333 9.46667 5.33333 8C5.33333 6.53333 6.53333 5.33333 8 5.33333C9.46667 5.33333 10.6667 6.53333 10.6667 8C10.6667 9.46667 9.46667 10.6667 8 10.6667ZM12.2667 2.8C11.7333 2.8 11.3333 3.2 11.3333 3.73333C11.3333 4.26667 11.7333 4.66667 12.2667 4.66667C12.8 4.66667 13.2 4.26667 13.2 3.73333C13.2 3.2 12.8 2.8 12.2667 2.8Z"
                fill="#46A358" fill-opacity="0.6" />
        </g>
    </symbol>
    <symbol id="twit" viewBox="0 0 32 32" fill="none">
        <g transform="translate(8,9.5)">
            <path
                d="M5.03186 13.0036C11.0699 13.0036 14.3718 8.00118 14.3718 3.66357C14.3718 3.52144 14.3689 3.38005 14.3624 3.2392C15.0033 2.77588 15.5605 2.19756 16 1.53953C15.4118 1.80085 14.7789 1.97682 14.1149 2.05616C14.7926 1.64981 15.313 1.0067 15.5585 0.24021C14.9241 0.616357 14.2217 0.889688 13.4742 1.03709C12.8749 0.399076 12.0218 0 11.0779 0C9.26483 0 7.79464 1.4702 7.79464 3.28233C7.79464 3.54001 7.82357 3.79041 7.87962 4.0308C5.1516 3.89377 2.73239 2.58735 1.11352 0.601253C0.831273 1.08622 0.668767 1.64999 0.668767 2.25106C0.668767 3.38988 1.24837 4.3953 2.12968 4.98363C1.59121 4.96707 1.08531 4.81894 0.642926 4.57291C0.642198 4.58656 0.642198 4.60039 0.642198 4.61476C0.642198 6.2047 1.77392 7.53204 3.27578 7.83285C3.00008 7.90801 2.71001 7.94841 2.41047 7.94841C2.19901 7.94841 1.99338 7.9273 1.79339 7.88927C2.21121 9.19332 3.42318 10.1425 4.86007 10.1693C3.73636 11.0499 2.32094 11.5745 0.783049 11.5745C0.518272 11.5745 0.256952 11.5594 0 11.529C1.45273 12.46 3.17769 13.0036 5.03186 13.0036Z"
                fill="#46A358" fill-opacity="0.6" />

        </g>
    </symbol>
    <symbol id="din" viewBox="0 0 32 32" fill="none">
        <g transform="translate(8,8)">
            <path
                d="M3.33333 1.66667C3.33333 2.6 2.6 3.33333 1.66667 3.33333C0.733333 3.33333 0 2.6 0 1.66667C0 0.733333 0.733333 0 1.66667 0C2.6 0 3.33333 0.733333 3.33333 1.66667ZM3.33333 4.66667H0V15.3333H3.33333V4.66667ZM8.66667 4.66667H5.33333V15.3333H8.66667V9.73333C8.66667 6.6 12.6667 6.33333 12.6667 9.73333V15.3333H16V8.6C16 3.33333 10.0667 3.53333 8.66667 6.13333V4.66667Z"
                fill="#46A358" fill-opacity="0.6" />

        </g>
    </symbol>
    <symbol id="uni" viewBox="0 0 32 32" fill="none">
        <g transform="translate(6.5,9)">
            <path fill-rule="evenodd" clip-rule="evenodd"
                d="M15.1653 4.42995L15.168 4.43062C15.168 4.43062 15.1676 4.4305 15.1667 4.4303C15.1663 4.4302 15.1658 4.43008 15.1653 4.42995ZM4.32444 4.35686C6.91762 4.19575 11.7483 4.19575 14.3415 4.35686L14.3422 4.3644C14.4047 4.99716 14.4299 5.84143 14.4299 7.01915C14.4299 8.18238 14.4053 9.02689 14.3441 9.66498C11.6962 9.77026 6.97129 9.77027 4.32282 9.66502C4.261 9.03324 4.23602 8.19137 4.23602 7.01915C4.23602 5.84143 4.26123 4.99716 4.32369 4.3644L4.32444 4.35686ZM15.2422 9.61106C15.2422 9.61109 15.2405 9.61148 15.237 9.61215L15.2422 9.61106ZM3.49794 9.60768L3.50063 9.60836C3.49881 9.60793 3.49792 9.60769 3.49794 9.60768ZM0 7.01915C0 11.8412 0.388873 13.63 3.42208 13.8633C6.22196 14.0189 12.4439 14.0189 15.2438 13.8633C18.277 13.7078 18.6659 11.8412 18.6659 7.01915C18.6659 2.19713 18.277 0.408316 15.2438 0.174993C12.4439 -0.0583309 6.22196 -0.0583309 3.42208 0.174993C0.388873 0.408316 0 2.19713 0 7.01915ZM3.49794 4.43062C3.49792 4.43061 3.49884 4.43037 3.50073 4.42992L3.49794 4.43062ZM9.78228 8.73886C8.50388 9.37806 6.99973 8.44845 6.99973 7.01915C6.99973 5.58986 8.50388 4.66025 9.78228 5.29945C11.1994 6.008 11.1994 8.0303 9.78228 8.73886Z"
                fill="#46A358" fill-opacity="0.6" />


        </g>
    </symbol>




</svg>